<?xml version="1.0" standalone="no"?><!DOCTYPE svg PUBLIC "-//W3C//DTD SVG 1.1//EN" "http://www.w3.org/Graphics/SVG/1.1/DTD/svg11.dtd"><svg t="1558427503882" class="icon" style="" viewBox="0 0 1024 1024" version="1.1" xmlns="http://www.w3.org/2000/svg" p-id="1424" xmlns:xlink="http://www.w3.org/1999/xlink" width="512" height="512"><defs><style type="text/css"></style></defs><path d="M132.12 445.94m-132.12 0a132.12 132.12 0 1 0 264.24 0 132.12 132.12 0 1 0-264.24 0Z" fill="#965A50" p-id="1425"></path><path d="M132.12 445.94m-82.58 0a82.58 82.58 0 1 0 165.16 0 82.58 82.58 0 1 0-165.16 0Z" fill="#EBC9A0" p-id="1426"></path><path d="M891.88 445.94m-132.12 0a132.12 132.12 0 1 0 264.24 0 132.12 132.12 0 1 0-264.24 0Z" fill="#965A50" p-id="1427"></path><path d="M891.88 445.94m-82.58 0a82.58 82.58 0 1 0 165.16 0 82.58 82.58 0 1 0-165.16 0Z" fill="#EBC9A0" p-id="1428"></path><path d="M885.178 524.098c-16.732-28.872-26.338-61.31-26.338-94.68v-0.002c0-144.746-88.728-268.66-214.71-320.636V49.548l-82.58 33.032-16.516-66.064c-43.562 14.522-80.722 44.996-108.712 74.596-155.114 34.566-271.16 172.78-271.16 338.308 0 33.37-9.606 65.808-26.338 94.68-25.44 43.896-39.726 92.964-39.726 144.804 0 186.992 184.862 338.58 412.904 338.58s412.904-151.588 412.904-338.58c-0.002-51.84-14.29-100.91-39.728-144.806z" fill="#AF6E5A" p-id="1429"></path><path d="M280.774 728.086c0-60.48 14.286-117.728 39.726-168.938 16.734-33.682 26.338-71.528 26.338-110.46 0-168.07 87.938-311.912 212.986-373.004l-14.792-59.168c-43.562 14.522-80.722 44.996-108.714 74.596-155.11 34.566-271.156 172.78-271.156 338.308 0 33.37-9.604 65.808-26.338 94.68-25.44 43.896-39.726 92.964-39.726 144.804 0 150.93 120.464 278.74 286.83 322.446-65.364-69.882-105.154-162.112-105.154-263.264z" fill="#965A50" p-id="1430"></path><path d="M512 941.42c136.824 0 247.742-88.734 247.742-198.194 0-22.708-4.828-44.49-13.67-64.772-12.82-29.414-8.456-63.174 12.14-87.778 26.268-31.382 39.816-73.754 32.666-119.27-9.82-62.518-60.364-112.972-122.896-122.706-47.784-7.438-92.074 7.936-123.806 36.878-9.02 8.226-20.6 12.34-32.174 12.34-11.58 0-23.162-4.112-32.182-12.34-31.732-28.942-76.022-44.316-123.806-36.878-62.532 9.732-113.074 60.188-122.896 122.706-7.15 45.514 6.398 87.886 32.666 119.27 20.596 24.606 24.96 58.364 12.14 87.778-8.84 20.284-13.67 42.066-13.67 64.772 0.004 109.458 110.922 198.194 247.746 198.194z" fill="#FAEBC8" p-id="1431"></path><path d="M264.258 743.224c0 37.044 12.936 71.59 35.048 101.25-11.876-36.822-18.532-75.832-18.532-116.39 0-60.48 14.286-117.728 39.726-168.938 16.734-33.682 26.338-71.528 26.338-110.46 0-34.614 3.92-68.112 10.936-100.16-0.59 0.084-1.166 0.08-1.758 0.172-62.532 9.732-113.072 60.188-122.896 122.704-7.15 45.516 6.4 87.888 32.666 119.27 20.596 24.604 24.962 58.362 12.142 87.778-8.842 20.286-13.67 42.068-13.67 64.774z" fill="#F5DCB4" p-id="1432"></path><path d="M478.952 660.646c-2.484 0-5-0.556-7.37-1.742l-33.032-16.516a16.516 16.516 0 0 1-7.388-22.162c4.096-8.162 14-11.468 22.162-7.388l33.032 16.516a16.516 16.516 0 0 1-7.404 31.292zM545.048 660.646a16.516 16.516 0 0 1-7.402-31.292l33.032-16.516c8.146-4.08 18.064-0.774 22.162 7.388a16.516 16.516 0 0 1-7.388 22.162l-33.032 16.516a16.454 16.454 0 0 1-7.372 1.742z" fill="#5D5360" p-id="1433"></path><path d="M364.638 726.71c-10.002 0-17.882 8.862-16.496 18.768 10.252 73.234 79.706 129.876 163.858 129.876 84.154 0 153.606-56.642 163.858-129.876 1.386-9.906-6.494-18.768-16.496-18.768H364.638z" fill="#4B3F4E" p-id="1434"></path><path d="M416.834 848.076c26.914 17.126 59.698 27.278 95.166 27.278s68.252-10.152 95.166-27.278c-11.932-41.332-50.126-71.818-95.166-71.818s-83.234 30.484-95.166 71.818z" fill="#E6646E" p-id="1435"></path><path d="M363.354 545.032c-27.364 0-49.548-22.184-49.548-49.548v-16.516c0-27.364 22.184-49.548 49.548-49.548s49.548 22.184 49.548 49.548v16.516c0.002 27.364-22.182 49.548-49.548 49.548z" fill="#4B3F4E" p-id="1436"></path><path d="M363.354 429.42v57.806c0 13.682 11.092 24.774 24.774 24.774s24.774-11.092 24.774-24.774v-8.258c0.002-27.366-22.182-49.548-49.548-49.548z" fill="#5D5360" p-id="1437"></path><path d="M363.36 462.46m-16.516 0a16.516 16.516 0 1 0 33.032 0 16.516 16.516 0 1 0-33.032 0Z" fill="#FFFFFF" p-id="1438"></path><path d="M660.646 545.032c-27.364 0-49.548-22.184-49.548-49.548v-16.516c0-27.364 22.184-49.548 49.548-49.548s49.548 22.184 49.548 49.548v16.516c0 27.364-22.184 49.548-49.548 49.548z" fill="#4B3F4E" p-id="1439"></path><path d="M660.646 429.42v57.806c0 13.682 11.092 24.774 24.774 24.774s24.774-11.092 24.774-24.774v-8.258c0-27.366-22.184-49.548-49.548-49.548z" fill="#5D5360" p-id="1440"></path><path d="M660.64 462.46m-16.516 0a16.516 16.516 0 1 0 33.032 0 16.516 16.516 0 1 0-33.032 0Z" fill="#FFFFFF" p-id="1441"></path><path d="M512 875.354c5.584 0 11.076-0.338 16.516-0.83v-32.202c0-9.12-7.388-16.516-16.516-16.516s-16.516 7.396-16.516 16.516v32.202c5.44 0.492 10.932 0.83 16.516 0.83z" fill="#FF8087" p-id="1442"></path></svg>